<svg xmlns="http://www.w3.org/2000/svg" viewBox="270 233 756 774" fill="none"><path fill="#F4F6F8" fill-rule="evenodd" d="M633,237 L681,238 L681,239 L692,239 L692,240 L699,240 L699,241 L706,241 L706,242 L728,245 L728,246 L748,250 L748,251 L751,251 L751,252 L754,252 L754,253 L764,255 L764,256 L767,256 L769,258 L778,260 L778,261 L783,262 L785,264 L788,264 L792,267 L795,267 L801,271 L804,271 L804,272 L810,274 L810,276 L801,285 L801,287 L795,292 L795,294 L789,299 L789,301 L783,306 L783,308 L776,314 L776,316 L771,320 L771,322 L765,327 L765,329 L760,333 L760,335 L754,340 L754,342 L748,347 L748,349 L742,354 L742,356 L730,368 L730,370 L724,375 L724,377 L719,381 L719,383 L713,388 L713,390 L708,394 L708,396 L705,399 L699,398 L696,396 L692,396 L692,395 L676,393 L676,392 L669,392 L669,391 L638,390 L638,391 L628,391 L628,392 L620,392 L620,393 L604,395 L604,396 L596,397 L596,398 L593,398 L593,399 L590,399 L590,400 L587,400 L587,401 L580,403 L528,455 L528,457 L500,484 L500,486 L482,503 L482,505 L465,521 L465,523 L452,535 L452,537 L447,542 L445,549 L442,553 L440,563 L438,566 L438,570 L437,570 L437,574 L436,574 L434,590 L433,590 L433,599 L432,599 L432,611 L431,611 L432,639 L433,639 L434,654 L435,654 L435,658 L436,658 L438,671 L439,671 L441,681 L443,683 L443,686 L445,688 L445,691 L446,691 L448,697 L462,711 L462,713 L470,720 L470,722 L480,731 L480,733 L489,741 L489,743 L498,751 L498,753 L507,761 L507,763 L459,810 L453,816 L453,818 L409,861 L409,863 L385,887 L383,887 L372,876 L372,874 L363,866 L363,864 L358,860 L358,858 L354,855 L354,853 L351,851 L351,849 L348,847 L348,845 L345,843 L343,838 L340,836 L340,834 L335,829 L334,825 L332,824 L332,822 L330,821 L326,812 L324,811 L321,803 L319,802 L319,800 L318,800 L318,798 L313,790 L313,787 L312,787 L312,785 L307,777 L307,774 L304,770 L304,767 L303,767 L302,762 L300,760 L299,754 L297,752 L297,749 L296,749 L296,746 L295,746 L295,743 L294,743 L294,740 L293,740 L293,737 L292,737 L292,734 L290,731 L290,727 L288,724 L288,720 L287,720 L287,716 L286,716 L285,708 L284,708 L284,704 L283,704 L283,699 L282,699 L282,695 L281,695 L281,690 L280,690 L278,671 L277,671 L277,663 L276,663 L276,654 L275,654 L274,600 L275,600 L276,577 L277,577 L278,562 L279,562 L279,556 L280,556 L280,550 L281,550 L281,545 L282,545 L282,541 L283,541 L284,531 L285,531 L287,519 L289,516 L289,512 L291,509 L291,505 L292,505 L292,502 L294,499 L294,495 L296,493 L298,484 L299,484 L300,479 L302,477 L302,474 L305,470 L305,467 L309,461 L309,458 L310,458 L320,436 L322,435 L325,427 L327,426 L327,424 L330,421 L331,417 L333,416 L334,412 L341,404 L342,400 L345,398 L345,396 L348,394 L348,392 L351,390 L351,388 L354,386 L354,384 L358,381 L358,379 L362,376 L362,374 L374,362 L374,360 L398,336 L400,336 L407,328 L409,328 L413,323 L415,323 L418,319 L420,319 L428,311 L433,309 L435,306 L437,306 L438,304 L440,304 L441,302 L443,302 L445,299 L449,298 L450,296 L452,296 L456,292 L458,292 L461,289 L465,288 L466,286 L472,284 L473,282 L475,282 L475,281 L477,281 L477,280 L479,280 L479,279 L481,279 L481,278 L483,278 L483,277 L485,277 L485,276 L487,276 L487,275 L489,275 L489,274 L491,274 L499,269 L502,269 L506,266 L509,266 L513,263 L524,260 L526,258 L536,256 L536,255 L539,255 L541,253 L545,253 L548,251 L556,250 L559,248 L564,248 L564,247 L576,245 L576,244 L582,244 L582,243 L600,241 L600,240 L608,240 L608,239 L633,238 L633,237 Z M892,332 L894,332 L922,360 L922,362 L929,368 L929,370 L939,380 L939,382 L942,384 L942,386 L945,388 L945,390 L951,396 L951,398 L953,399 L953,401 L955,402 L955,404 L957,405 L957,407 L959,408 L959,410 L961,411 L961,413 L965,417 L969,426 L971,427 L974,435 L976,436 L976,438 L977,438 L977,440 L978,440 L978,442 L979,442 L979,444 L980,444 L980,446 L981,446 L981,448 L982,448 L982,450 L983,450 L983,452 L988,460 L988,463 L990,464 L990,467 L993,471 L994,477 L997,481 L997,484 L998,484 L998,487 L999,487 L1001,496 L1003,498 L1007,514 L1008,514 L1008,518 L1009,518 L1009,522 L1010,522 L1010,526 L1011,526 L1011,530 L1012,530 L1012,534 L1013,534 L1014,544 L1015,544 L1016,555 L1017,555 L1018,569 L1019,569 L1019,576 L1020,576 L1020,585 L1021,585 L1021,596 L1022,596 L1022,646 L1021,646 L1021,658 L1020,658 L1018,681 L1017,681 L1017,687 L1016,687 L1012,712 L1011,712 L1008,727 L1007,727 L1007,730 L1006,730 L1006,733 L1005,733 L1005,736 L1003,739 L1003,743 L1001,745 L1001,748 L1000,748 L998,757 L996,759 L995,765 L993,767 L993,770 L988,778 L988,781 L987,781 L977,803 L975,804 L975,806 L974,806 L973,810 L971,811 L969,817 L967,818 L966,822 L964,823 L964,825 L962,826 L962,828 L960,829 L960,831 L956,835 L955,839 L952,841 L952,843 L947,848 L947,850 L944,852 L944,854 L941,856 L941,858 L932,867 L932,869 L927,873 L927,875 L918,883 L918,885 L899,904 L897,904 L888,914 L886,914 L882,919 L880,919 L872,927 L870,927 L868,930 L866,930 L864,933 L862,933 L860,936 L858,936 L857,938 L855,938 L854,940 L852,940 L851,942 L849,942 L845,946 L841,947 L840,949 L831,953 L830,955 L824,957 L823,959 L821,959 L821,960 L819,960 L819,961 L817,961 L817,962 L815,962 L815,963 L813,963 L805,968 L802,968 L794,973 L791,973 L789,975 L786,975 L786,976 L781,977 L779,979 L776,979 L774,981 L771,981 L771,982 L768,982 L768,983 L765,983 L765,984 L762,984 L762,985 L759,985 L756,987 L752,987 L749,989 L745,989 L742,991 L734,992 L734,993 L729,993 L729,994 L715,996 L715,997 L709,997 L709,998 L703,998 L703,999 L677,1001 L677,1002 L643,1003 L643,1002 L621,1002 L621,1001 L601,1000 L601,999 L594,999 L594,998 L588,998 L588,997 L568,994 L568,993 L564,993 L564,992 L560,992 L560,991 L556,991 L556,990 L552,990 L552,989 L548,989 L548,988 L544,987 L527,982 L527,981 L524,981 L524,980 L519,979 L519,978 L516,978 L512,975 L509,975 L507,973 L504,973 L504,972 L496,969 L496,967 L498,966 L500,961 L503,959 L503,957 L506,955 L506,953 L509,951 L509,949 L512,947 L512,945 L515,943 L515,941 L518,939 L518,937 L521,935 L521,933 L524,931 L524,929 L527,927 L527,925 L530,923 L530,921 L533,919 L533,917 L536,915 L536,913 L539,911 L539,909 L543,906 L545,901 L548,899 L548,897 L551,895 L551,893 L554,891 L554,889 L557,887 L557,885 L563,879 L565,874 L568,872 L568,870 L571,868 L571,866 L578,859 L578,857 L581,855 L583,850 L586,848 L586,846 L590,843 L590,841 L593,838 L607,841 L607,842 L611,842 L611,843 L631,845 L631,846 L668,846 L668,845 L688,843 L688,842 L692,842 L692,841 L696,841 L696,840 L710,837 L790,757 L790,755 L837,709 L837,707 L848,696 L848,694 L852,688 L852,685 L854,683 L854,680 L856,678 L858,668 L859,668 L859,664 L860,664 L860,660 L861,660 L861,656 L862,656 L863,644 L864,644 L864,636 L865,636 L864,591 L863,591 L862,579 L861,579 L861,575 L860,575 L859,566 L858,566 L858,563 L856,560 L856,556 L855,556 L855,553 L853,551 L852,545 L851,545 L847,535 L845,534 L845,532 L838,526 L838,524 L831,518 L831,516 L821,507 L821,505 L810,495 L810,493 L799,483 L799,481 L787,470 L787,468 L775,457 L775,454 L814,415 L814,413 L832,396 L832,394 L851,376 L851,374 L872,354 L872,352 L892,332 Z"/><path fill="#FF5A5F" d="M514,812 L520,818 L522,818 L534,831 L536,831 L548,844 L550,844 L551,847 L545,853 L545,855 L541,858 L541,860 L538,862 L538,864 L534,867 L534,869 L530,872 L530,874 L527,876 L527,878 L523,881 L523,883 L520,885 L520,887 L516,890 L516,892 L513,894 L513,896 L509,899 L509,901 L506,903 L506,905 L503,907 L503,909 L500,911 L500,913 L496,916 L496,918 L493,920 L493,922 L490,924 L490,926 L487,928 L487,930 L483,933 L483,935 L480,937 L480,939 L477,941 L477,943 L473,946 L471,951 L468,953 L465,950 L460,948 L457,945 L455,945 L454,943 L452,943 L451,941 L449,941 L448,939 L446,939 L444,936 L439,934 L437,931 L432,929 L429,925 L427,925 L425,922 L423,922 L418,917 L430,905 L430,903 L438,896 L438,894 L448,885 L448,883 L457,875 L457,873 L478,852 L478,850 L489,840 L489,838 L499,829 L499,827 L514,812 Z"/></svg>